<?xml version="1.0" encoding="UTF-8"?>
<svg id="Capa_1" data-name="Capa 1" xmlns="http://www.w3.org/2000/svg" version="1.1" viewBox="0 0 270 280">
  <defs>
    <style>
      .cls-1 {
        fill: #50ff6d;
      }

      .cls-1, .cls-2, .cls-3, .cls-4, .cls-5, .cls-6, .cls-7, .cls-8, .cls-9, .cls-10, .cls-11, .cls-12, .cls-13 {
        stroke-width: 0px;
      }

      .cls-2 {
        fill: #ffbc50;
      }

      .cls-3 {
        fill: #5267ff;
      }

      .cls-4 {
        fill: #ff9052;
      }

      .cls-5 {
        fill: #ffdd4d;
      }

      .cls-6 {
        fill: #deff55;
      }

      .cls-7 {
        fill: #ff50bc;
      }

      .cls-8 {
        fill: #4dbfff;
      }

      .cls-9 {
        fill: #ff6e52;
      }

      .cls-10 {
        fill: #4dfff2;
      }

      .cls-11 {
        fill: #52ffc5;
      }

      .cls-12 {
        fill: #f64dff;
      }

      .cls-13 {
        fill: #ba50ff;
      }
    </style>
  </defs>
  <path class="cls-8" d="M251.9,95.9c-23,2.7-46.1,5.5-69.1,8.2s-10.3,4.3-10.3,10.3,4.7,10.9,10.3,10.3c23-2.7,46.1-5.5,69.1-8.2s10.3-4.3,10.3-10.3-4.7-10.9-10.3-10.3h0Z"/>
  <path class="cls-7" d="M57.5,130.4c-.2-22.2-.4-44.4-.6-66.5-.1-13.2-20.7-13.2-20.5,0,.2,22.2.4,44.4.6,66.5s20.7,13.2,20.5,0h0Z"/>
  <path class="cls-4" d="M20.3,164.1c6.7,13.8,13.4,27.6,20,41.4s9.5,6.3,14,3.7,6.1-9,3.7-14c-6.7-13.8-13.4-27.6-20-41.4s-9.5-6.3-14-3.7-6.1,9-3.7,14h0Z"/>
  <path class="cls-12" d="M156.3,185.5c4.8,22.7,9.6,45.4,14.4,68.1s7.5,8.6,12.6,7.2c5.6-1.5,8.3-7.2,7.2-12.6-4.8-22.7-9.6-45.4-14.4-68.1-1.2-5.4-7.5-8.6-12.6-7.2-5.6,1.5-8.3,7.2-7.2,12.6h0Z"/>
  <path class="cls-1" d="M206.5,181.5c7.1-11.8,14.1-23.5,21.2-35.3,6.8-11.4-10.9-21.7-17.7-10.4-7.1,11.8-14.1,23.5-21.2,35.3s10.9,21.7,17.7,10.4h0Z"/>
  <path class="cls-3" d="M72.9,49.4c16.9,0,33.8,0,50.8,0,13.2,0,13.2-20.5,0-20.5-16.9,0-33.8,0-50.8,0-13.2,0-13.2,20.5,0,20.5h0Z"/>
  <path class="cls-5" d="M72.4,161.5c20.1-11.9,40.3-23.8,60.4-35.7s1.1-24.5-10.4-17.7c-20.1,11.9-40.3,23.8-60.4,35.7-11.4,6.7-1.1,24.5,10.4,17.7h0Z"/>
  <path class="cls-9" d="M131.4,203c10.5-20.7,21-41.4,31.4-62.1,2.5-4.9,1.3-11.1-3.7-14s-11.5-1.3-14,3.7c-10.5,20.7-21,41.4-31.4,62.1s-1.3,11.1,3.7,14,11.5,1.3,14-3.7h0Z"/>
  <path class="cls-6" d="M89.6,112.5c8.4-11.8,16.7-23.7,25.1-35.5s.8-11.4-3.7-14-10.8-.9-14,3.7c-8.4,11.8-16.7,23.7-25.1,35.5s-.8,11.4,3.7,14,10.8.9,14-3.7h0Z"/>
  <path class="cls-2" d="M207.6,232.7c16.4-16.4,32.8-32.8,49.2-49.2s-5.2-23.9-14.5-14.5c-16.4,16.4-32.8,32.8-49.2,49.2s5.2,23.9,14.5,14.5h0Z"/>
  <path class="cls-10" d="M155.9,96.2c4.1-22.8,8.2-45.7,12.3-68.5,1-5.5-1.5-11.1-7.2-12.6s-11.6,1.7-12.6,7.2c-4.1,22.8-8.2,45.7-12.3,68.5-1,5.5,1.5,11.1,7.2,12.6s11.6-1.7,12.6-7.2h0Z"/>
  <path class="cls-13" d="M78.8,232c7.5-19.5,15.1-39,22.6-58.5s-2.2-11.3-7.2-12.6-10.6,2-12.6,7.2c-7.5,19.5-15.1,39-22.6,58.5s2.2,11.3,7.2,12.6,10.6-2,12.6-7.2h0Z"/>
  <path class="cls-11" d="M93.7,237.5c12.1,8.8,24.2,17.6,36.3,26.4s11.4.8,14-3.7c3-5.2.8-10.8-3.7-14-12.1-8.8-24.2-17.6-36.3-26.4-4.5-3.3-11.4-.8-14,3.7s-.8,10.8,3.7,14h0Z"/>
  <path class="cls-11" d="M181.5,48.7c10.2,11.7,20.4,23.4,30.5,35.1s10.8,3.7,14.5,0,3.6-10.3,0-14.5c-10.2-11.7-20.4-23.4-30.5-35.1s-10.8-3.7-14.5,0-3.6,10.3,0,14.5h0Z"/>
  <path class="cls-2" d="M166.9,89.4c.9,1.6,1.8,3.2,2.7,4.9s3.7,4,6.1,4.7,5.7.4,7.9-1,4.1-3.5,4.7-6.1.3-5.4-1-7.9-1.8-3.2-2.7-4.9-3.7-4-6.1-4.7-5.7-.4-7.9,1-4.1,3.5-4.7,6.1-.3,5.4,1,7.9h0Z"/>
  <path class="cls-1" d="M12.5,114.8c-1.1,1.5-2.1,3-3.2,4.5s-1.7,5.6-1,7.9,2.5,5,4.7,6.1,5.3,1.9,7.9,1l2.5-1c1.5-.9,2.8-2.1,3.7-3.7,1.1-1.5,2.1-3,3.2-4.5s1.7-5.6,1-7.9-2.5-5-4.7-6.1-5.3-1.9-7.9-1l-2.5,1c-1.5.9-2.8,2.1-3.7,3.7h0Z"/>
  <path class="cls-3" d="M134.4,209.7c-1.1,1.5-2.1,3-3.2,4.5s-1.7,5.6-1,7.9,2.5,5,4.7,6.1,5.3,1.9,7.9,1l2.5-1c1.5-.9,2.8-2.1,3.7-3.7,1.1-1.5,2.1-3,3.2-4.5s1.7-5.6,1-7.9-2.5-5-4.7-6.1-5.3-1.9-7.9-1l-2.5,1c-1.5.9-2.8,2.1-3.7,3.7h0Z"/>
</svg>